<svg xmlns="http://www.w3.org/2000/svg" viewBox="0 0 573 573" width="573" height="573">
	<style>
		tspan { white-space:pre }
		.shp0 { fill: #000000 } 
		.shp1 { fill: #dcdcdc } 
		.shp2 { fill: #ffffff } 
	</style>
	<g id="Layer">
		<path id="Layer" class="shp0" d="M284.1 559.3C133.08 559.3 11 437.22 11 286.2C11 135.18 133.08 13.1 284.1 13.1C435.12 13.1 557.2 135.18 557.2 286.2C557.2 437.22 435.12 559.3 284.1 559.3Z" />
		<g id="Layer">
			<path id="Layer" fill-rule="evenodd" class="shp1" d="M562.2 286.2C562.2 360.4 533.2 430.2 480.7 482.8C428.2 535.4 358.4 564.3 284.1 564.3C209.9 564.3 140.1 535.3 87.5 482.8C34.9 430.3 6 360.5 6 286.2C6 211.9 35 142.2 87.5 89.6C140 37 209.8 8.1 284.1 8.1C358.3 8.1 428.2 37.1 480.7 89.6C533.3 142.1 562.2 211.9 562.2 286.2ZM552.2 286.2C552.2 138.4 431.9 18.1 284.1 18.1C136.3 18.1 16 138.4 16 286.2C16 384.4 69 470.4 147.9 517.1C198.3 452.3 231.2 368.3 243.7 297.1C244.1 294.6 244.5 292.2 244.9 289.7C192.5 245.4 137.2 204.4 104.6 196.7C99.3 195.4 98.3 178.3 99.5 176.8C105.3 169.3 198.3 188.6 252.1 197.1C251.8 159.5 247.7 129.7 244.5 110.9C252.1 105.5 264 108.8 266.1 108.8C269.1 115.9 286.5 154.4 307.2 202.4C350.6 204.3 378.1 201.4 403.6 197C398.8 182 388.9 168.4 375.9 156.7C351.7 135.1 319.4 121.2 287.9 107.3C278.7 103.2 267.8 99.2 260.7 92.8C254.1 86.9 250.2 77.8 250.2 70.1C250.1 61 254 50.6 262.7 46.1C267.4 43.7 286.2 42.5 283.7 44.8C274.8 54 269.1 63.8 274.1 75.3C276.8 81.5 280.3 85.9 286.7 89.6C298.9 96.6 312.8 101.8 325.9 107.7C357.3 121.8 388.6 140 408.8 164.1C416.2 173 421.3 182.8 424.5 193.1C433.3 191.4 442.3 189.7 452 188C447.9 187.1 445.8 186.6 439.2 185.4C435.2 184.7 434.2 178 437.9 179.4C447.1 183.2 479.5 182.7 482.9 182.5C479.7 183.6 453.3 197.7 449.5 206.8C448.1 210.2 439.9 203.6 445 200.3C448.2 198.2 451 196.3 453.7 194.3C445.2 197.1 436.2 199.7 426.9 202.1C431.8 226.2 427.5 252 418.8 274.4C408.6 300.7 388.4 324.3 364.8 344.6C375 372.8 382.5 396.8 384.7 411.6C385.1 414.4 380.6 416 378.9 413.5C378.2 412.4 360.1 394.2 333 368.6C318.3 378.4 302.5 388.4 291.6 399.9C285.4 406.5 281.7 412.3 279.5 420.4C276.3 432 287 440.1 298 447.9C301 450.1 284.5 452.7 281.5 450.5C240.1 420.9 292.2 385.8 326.2 362.2C306.8 344 283.5 322.7 259 301.6C242.3 375.1 210.4 456 156 521.6C194.1 542.5 237.7 554.3 284.1 554.3C431.9 554.3 552.2 434 552.2 286.2ZM251.9 218.2C215.5 215.5 179.8 208.6 147.8 196.3C170.9 206.9 209 237 247.7 271.3C250.1 252.5 251.4 234.7 251.9 218.2ZM273.2 200.1C275.2 200.4 277.1 200.6 278.8 200.7C282.2 200.9 285.5 201.2 288.8 201.4C283.5 189.8 278.4 178.9 273.8 168.9C274 178.6 273.8 189 273.2 200.1ZM272 219.1C270.2 239.6 267.1 261.6 262.6 284.6C289.2 308.9 315.2 334.2 335.7 355.5C337.2 354.4 338.6 353.4 339.9 352.4C344.4 349 348.6 345.5 352.6 341.9C336.6 304.2 315.9 259.4 297.3 219.4C288.8 219.5 280.4 219.5 272 219.1ZM361 333.9C380.5 313.6 392.6 290.7 400.9 264.5C406.7 246.3 409.6 226 406.2 207C377.6 213.1 346.4 217.3 314.4 218.8C330.4 256.4 347.5 297.8 361 333.9ZM356.6 351.4C353.9 353.6 351.1 355.8 348.3 357.9C346.3 359.3 344.3 360.8 342.2 362.3C358.6 379.7 370.7 393.8 375.6 401.5C371.5 388.4 364.8 371.1 356.6 351.4Z" />
			<path id="Layer" class="shp2" d="M483 182.5C483.2 182.5 483.3 182.5 483.3 182.5C483.3 182.4 483.2 182.5 483 182.5Z" />
		</g>
	</g>
</svg>